<?xml version="1.0" encoding="UTF-8"?>
<!DOCTYPE svg PUBLIC "-//W3C//DTD SVG 1.1//EN" "http://www.w3.org/Graphics/SVG/1.1/DTD/svg11.dtd">
<!-- Creator: CorelDRAW X6 -->
<svg xmlns="http://www.w3.org/2000/svg" xml:space="preserve" width="4.54166in" height="4.54166in" version="1.1" style="shape-rendering:geometricPrecision; text-rendering:geometricPrecision; image-rendering:optimizeQuality; fill-rule:evenodd; clip-rule:evenodd"
viewBox="0 0 4542 4542"
 xmlns:xlink="http://www.w3.org/1999/xlink">
 <defs>
  <style type="text/css">
   <![CDATA[
    .fil0 {fill:#526198;fill-rule:nonzero}
   ]]>
  </style>
 </defs>
 <g id="Layer_x0020_1">
  <metadata id="CorelCorpID_0Corel-Layer"/>
  <path class="fil0" d="M611 0c-338,1 -611,274 -611,612l0 3318c0,338 274,612 612,612l1636 0 3 -1623 -422 0c-55,0 -99,-44 -99,-99l-2 -523c0,-55 44,-100 100,-100l421 0 0 -506c0,-587 358,-906 882,-906l429 0c55,0 100,45 100,100l0 441c0,55 -45,100 -99,100l-264 0c-285,0 -340,135 -340,334l0 438 625 0c60,0 106,52 99,111l-62 523c-6,50 -48,88 -99,88l-561 0 -3 1623 974 0c338,0 612,-274 612,-612l0 -3318c0,-338 -274,-612 -611,-612l-3320 0z"/>
 </g>
</svg>
